<?xml version="1.0"?>
<svg width="300" height="300" xmlns="http://www.w3.org/2000/svg" xmlns:svg="http://www.w3.org/2000/svg">
 <title>swimlane-brand-github-octocat</title>
 <g class="layer">
  <title>Layer 1</title>
  <path d="m129.072,163.051c-16.513,-1.806 -32.347,-5.513 -45.584,-16.4a45.591,45.591 0 0 1 -10.585,-12.69c-0.482,-0.841 -0.884,-1.4 -2.05,-1.347a295.806,295.806 0 0 0 -54.772,6.988c-2.406,0.559 -4.777,1.27 -7.184,1.829c-0.453,0.105 -1.2,0.745 -1.481,-0.127c-0.289,-0.9 0.656,-0.8 1.126,-0.925c6.336,-1.751 12.747,-3.18 19.219,-4.337a293.416,293.416 0 0 1 41.554,-4.408c2.192,-0.075 1.905,-0.031 1.367,-2.1c-0.754,-2.906 -2.47,-3.4 -5.188,-3.457c-18.949,-0.434 -37.782,0.55 -56.442,4.042a1.089,1.089 0 0 1 -0.387,0.046c-0.622,-0.122 -1.628,0.78 -1.8,-0.27c-0.15,-0.9 1.013,-0.727 1.613,-0.839a268.056,268.056 0 0 1 57.023,-4.036a10.53,10.53 0 0 1 1.367,0.039c1.756,0.285 1.775,-0.343 1.342,-1.874c-3.974,-14.05 -5.358,-28.273 -2.023,-42.65a48.773,48.773 0 0 1 11.44,-21.491a2.4,2.4 0 0 0 0.574,-2.727c-3.751,-11.535 -2.552,-22.851 1.587,-34.038c0.47,-1.27 1.406,-1.2 2.355,-1.23c5.452,-0.181 10.551,1.346 15.539,3.324a99.562,99.562 0 0 1 18.984,10.327a3.185,3.185 0 0 0 2.871,0.489a132.781,132.781 0 0 1 62.507,-0.771a3.581,3.581 0 0 0 3.065,-0.536c7.762,-5.072 15.822,-9.537 24.9,-11.855a31.525,31.525 0 0 1 8.309,-1.027a2.5,2.5 0 0 1 2.719,1.907c3.589,10.252 4.81,20.638 1.98,31.281a1.874,1.874 0 0 0 0.515,2.058c10.629,11.121 15.413,24.457 15.208,39.761c-0.13,9.73 -0.642,19.4 -3.084,28.879a3.159,3.159 0 0 0 1.91,0.175a297.528,297.528 0 0 1 44.319,1.6c5.177,0.587 10.331,1.347 15.444,2.356c0.674,0.133 1.954,-0.066 1.812,0.848c-0.177,1.14 -1.346,0.35 -1.959,0.235c-17.432,-3.273 -35.037,-4.275 -52.733,-4.111c-2.607,0.024 -5.214,0.246 -7.818,0.21c-1.158,-0.016 -1.546,0.445 -1.866,1.435c-1.262,3.9 -1.29,3.866 2.823,4.035c20.1,0.829 39.96,3.327 59.42,8.591a4.863,4.863 0 0 1 0.76,0.174c0.369,0.169 1.027,0.13 0.88,0.788c-0.194,0.868 -0.849,0.366 -1.256,0.27c-3.988,-0.938 -7.948,-2 -11.951,-2.871a268.141,268.141 0 0 0 -38.868,-5.337c-4.1,-0.276 -8.2,-0.451 -12.3,-0.685c-0.731,-0.042 -1.346,-0.088 -1.742,0.783c-5.993,13.164 -16.872,20.447 -30.114,24.774a103.512,103.512 0 0 1 -25.417,4.908a37.779,37.779 0 0 1 -7.764,0.349c-13.389,-0.159 -26.783,0.436 -40.164,-0.362zm88.37,-49.667c0.249,-0.744 -0.172,-1.408 -0.3,-2.094c-2.294,-12.471 -14.362,-23.068 -26.982,-23.751c-8.861,-0.48 -17.679,0.347 -26.5,0.908a207.051,207.051 0 0 1 -27.894,-0.251c-7.788,-0.555 -15.559,-1.116 -23.366,-0.3c-12.573,1.318 -24.166,12.918 -25.384,25.488c-0.037,2.213 -0.21,4.434 -0.091,6.639c0.815,15.046 7.876,25.7 22.115,31.291c7.718,3.031 15.794,4.348 23.988,5.036a304.554,304.554 0 0 0 38.689,0.357a90.622,90.622 0 0 0 21.214,-3.091c11.126,-3.194 19.2,-9.671 22.627,-21.1a51.824,51.824 0 0 0 1.884,-19.132z" fill="#212020" id="svg_1"/>
  <path d="m118.583,179.865c1.286,-4.011 2.551,-8.032 5.25,-11.392a51.123,51.123 0 0 1 16.6,-2.591c9.4,-0.093 18.857,-0.912 28.215,0.692c7.165,1.228 13.131,4.39 16.736,11.078c0.409,0.759 0.679,1.744 1.8,1.848a37.453,37.453 0 0 1 0.863,9.259c0.054,8.322 0.016,16.646 0.024,24.969c0,0.711 0.071,1.421 0.109,2.132c-0.034,1.882 -0.077,3.764 -0.1,5.647c-0.086,6.405 2.49,11.164 8.484,13.877a3.008,3.008 0 0 1 1.768,4.2l-0.68,0.542l-0.484,0.241a29.161,29.161 0 0 1 -13.641,-1.792c-5.934,-2.7 -9.175,-7.247 -9.351,-13.825c-0.094,-3.5 -0.076,-7.012 -0.109,-10.519c0.008,-6.579 0.121,-13.16 -0.023,-19.736a19.194,19.194 0 0 0 -2.248,-9.011c-0.442,-0.794 -0.788,-1.736 -1.908,-2.026l0,30.408c-0.015,7.2 -0.177,14.412 0.01,21.611c0.107,4.122 1.229,7.991 5.327,10.153c1.41,2.8 1.058,3.919 -1.654,5.269l-1.776,0.212a25.931,25.931 0 0 1 -11.685,-4.86c-4,-3.523 -5.457,-7.985 -5.326,-13.249c0.165,-6.632 0,-13.272 -0.016,-19.909q0.039,-8.878 0.076,-17.759c0.015,-4.555 0.031,-9.11 0.018,-13.665c0,-1.306 -0.442,-2.343 -2.008,-2.3c-1.525,0.039 -1.715,1.111 -1.713,2.312q0.021,15.712 0.039,31.427c-0.024,6.555 -0.166,13.113 -0.034,19.665c0.106,5.283 -1.351,9.831 -5.228,13.508a25.169,25.169 0 0 1 -11.32,4.857l-2.713,-0.042c-2.461,-1.6 -2.614,-2.986 -0.644,-5.844c3.452,-1.539 4.847,-4.438 4.888,-7.972c0.091,-7.792 0.015,-15.586 0.007,-23.379l0,-30.977a4.559,4.559 0 0 0 -2.2,2.37a15.365,15.365 0 0 0 -1.665,5.572c-0.808,7.793 -0.284,15.609 -0.335,23.415c-0.022,2.722 -0.156,5.449 -0.042,8.165c0.311,7.413 -2.456,12.975 -9.385,16.15c-0.49,0.16 -0.984,0.311 -1.47,0.481a29.757,29.757 0 0 1 -11.523,1.451c-1.153,-0.061 -2.273,-0.372 -2.616,-1.628a2.658,2.658 0 0 1 1.382,-2.974a15.421,15.421 0 0 1 2.1,-1c4.083,-1.917 6.916,-4.875 7.415,-9.516a52.736,52.736 0 0 0 0.042,-9.149c0.158,-6.789 0.232,-13.579 -0.037,-20.367a6.257,6.257 0 0 0 0.36,-1.487c-0.026,-4.856 0.028,-9.707 0.421,-14.542z" fill="#212020" id="svg_2"/>
  <path d="m131.241,245.251c-1.97,2.858 -1.817,4.244 0.644,5.844l-0.006,18.707a84.715,84.715 0 0 1 -13.5,-1.7a154.745,154.745 0 0 1 -18.927,-4.533c-8.009,-2.626 -15.863,-5.572 -22.214,-11.4c-7.959,-7.307 -6.381,-15.177 1.314,-21.349c7.36,-5.9 16.109,-8.885 25.029,-11.425a137.231,137.231 0 0 1 14.253,-3.136a52.736,52.736 0 0 1 -0.042,9.149c-0.5,4.641 -3.332,7.6 -7.415,9.516a15.421,15.421 0 0 0 -2.1,1a2.658,2.658 0 0 0 -1.377,2.976c0.343,1.256 1.463,1.567 2.616,1.628a29.757,29.757 0 0 0 11.523,-1.451c0.486,-0.17 0.98,-0.321 1.47,-0.481c2.937,1.712 5.887,3.4 7.858,6.326c0.14,0.211 0.575,0.224 0.874,0.329z" fill="#95d2ed" id="svg_3"/>
  <path d="m197.168,240.368l0.484,-0.241c0.357,-0.016 0.622,-0.15 0.68,-0.542a3.008,3.008 0 0 0 -1.768,-4.2c-5.994,-2.713 -8.57,-7.472 -8.484,-13.877c0.025,-1.883 0.068,-3.765 0.1,-5.647c12.351,2.074 24.484,4.887 35.6,10.951a28.96,28.96 0 0 1 9.791,7.911c3.93,5.29 3.59,11.058 -0.95,15.953c-4.363,4.7 -9.9,7.594 -15.683,9.992c-8.981,3.723 -18.408,5.911 -27.966,7.561a4.072,4.072 0 0 1 -0.779,-0.016c0.008,-4.884 -0.146,-9.776 0.066,-14.652a13.028,13.028 0 0 1 7.7,-11.917c0.572,-0.28 1.294,-0.384 1.209,-1.276z" fill="#9cd9ef" id="svg_4"/>
  <path d="m117.017,195.9c-15.646,3.619 -31.183,0.788 -40.064,-15.187q-1.706,-3.066 -3.529,-6.067a25.449,25.449 0 0 0 -10.872,-10.066a13.562,13.562 0 0 1 -4.479,-3.074c-1.39,-1.569 -1.1,-2.84 0.868,-3.6c3.146,-1.215 6.293,-0.728 9.364,0.3c5.864,1.955 10.2,5.845 13.559,10.934a60.755,60.755 0 0 0 3.672,5.282c7.066,8.557 16.91,11.038 28.437,7.248c1.291,-0.424 2.557,-0.927 3.834,-1.393l-0.438,2.388c-1.38,-0.317 -2.637,-0.011 -2.736,1.522c-0.094,1.455 1.193,1.589 2.366,1.512l0.018,10.201zm-32.93,-20.157a1.259,1.259 0 0 0 -1.285,1.583a2.766,2.766 0 0 0 2.571,2.524c0.982,0.095 1.421,-0.543 1.421,-1.451a3.08,3.08 0 0 0 -2.707,-2.657l0,0.001zm15.328,11.981c1.173,-0.028 2.3,-0.257 2.218,-1.491c-0.1,-1.409 -1.342,-1.795 -2.6,-1.8c-0.945,0 -2,0.173 -1.976,1.374c0.029,1.516 1.279,1.757 2.358,1.916l0,0.001zm-8.759,-6.007c-0.881,-0.027 -1.578,0.256 -1.7,1.222c-0.135,1.106 1.5,2.425 2.877,2.4c0.9,-0.02 1.534,-0.416 1.6,-1.349c0.084,-1.05 -1.46,-2.266 -2.777,-2.274l0,0.001zm17.417,2.8c-0.875,0.236 -2.1,0.342 -2.056,1.728c0.046,1.363 1.218,1.551 2.289,1.559c1.089,0.008 2.307,-0.269 2.315,-1.551c0.009,-1.376 -1.236,-1.635 -2.548,-1.733l0,-0.003zm-29.053,-15.267c-0.914,-0.031 -1.249,0.532 -1.3,1.325a2.726,2.726 0 0 0 2.28,2.684c0.907,0.016 1.262,-0.538 1.325,-1.321a2.806,2.806 0 0 0 -2.305,-2.688zm-4.84,-5.352c-0.762,0.059 -1.311,0.456 -1.191,1.226a2.2,2.2 0 0 0 2.111,1.976c0.754,0.065 1.312,-0.345 1.188,-1.169a2.456,2.456 0 0 0 -2.108,-2.031l0,-0.002zm-2.955,-1.852a1.775,1.775 0 0 0 -1.793,-1.431c-0.625,-0.034 -1.284,0.134 -1.217,0.876c0.087,0.968 0.879,1.379 1.76,1.488a1.028,1.028 0 0 0 1.25,-0.933z" fill="#232222" id="svg_5"/>
  <path d="m197.168,240.368c0.085,0.892 -0.637,1 -1.213,1.275a13.028,13.028 0 0 0 -7.7,11.917c-0.212,4.876 -0.058,9.768 -0.066,14.652a90.259,90.259 0 0 1 -14.058,1.647c0,-5.6 0.011,-11.206 0,-16.809c0,-0.75 0.245,-1.6 -0.559,-2.15c2.712,-1.35 3.064,-2.472 1.654,-5.27c1.683,-1.6 3.063,-3.493 5.027,-4.825c1.091,-0.74 2.652,-0.809 3.275,-2.229a29.161,29.161 0 0 0 13.64,1.792z" fill="#7cb9e5" id="svg_6"/>
  <path d="m154.768,213.094c0.02,6.637 0.181,13.277 0.016,19.909c-0.131,5.264 1.327,9.726 5.326,13.249a2.422,2.422 0 0 1 -0.705,1.356a17.3,17.3 0 0 0 -2.941,6.09c-1.747,5.673 -0.929,11.489 -1.089,17.251l-4.368,-0.1a51.217,51.217 0 0 1 -0.322,-9.121a23.2,23.2 0 0 0 -4.767,-15.447c3.877,-3.677 5.334,-8.225 5.228,-13.508c-0.132,-6.552 0.01,-13.11 0.034,-19.666l3.588,-0.013z" fill="#9bd3e7" id="svg_7"/>
  <path d="m155.375,270.949c0.16,-5.762 -0.658,-11.578 1.089,-17.251a17.3,17.3 0 0 1 2.941,-6.09a2.422,2.422 0 0 0 0.705,-1.356a25.931,25.931 0 0 0 11.685,4.86c-0.4,1.363 -0.829,2.715 -1.178,4.089c-1.265,4.97 -0.664,10.038 -0.757,15.07a96.7,96.7 0 0 1 -14.485,0.678z" fill="#7cb9e5" id="svg_8"/>
  <path d="m145.918,246.28a23.2,23.2 0 0 1 4.767,15.447a51.217,51.217 0 0 0 0.322,9.121a126.728,126.728 0 0 1 -14.8,-0.683c-0.042,-6.384 0.364,-12.807 -1.612,-19.028a25.169,25.169 0 0 0 11.323,-4.857z" fill="#7cb9e5" id="svg_9"/>
  <path d="m187.186,179.5c-1.122,-0.1 -1.392,-1.089 -1.8,-1.848c-3.605,-6.688 -9.571,-9.85 -16.736,-11.078c-9.358,-1.6 -18.812,-0.785 -28.215,-0.692a51.123,51.123 0 0 0 -16.6,2.591c1.34,-2.2 3.534,-3.575 5.239,-5.422c13.381,0.8 26.775,0.2 40.162,0.362a37.779,37.779 0 0 0 7.764,-0.349c0.157,0.721 0.828,0.951 1.309,1.358a25.529,25.529 0 0 1 8.877,15.078z" fill="#030303" id="svg_10"/>
  <path d="m134.6,251.137c1.976,6.221 1.57,12.644 1.612,19.028l-4.331,-0.363l0.006,-18.707l2.713,0.042z" fill="#9cd9ef" id="svg_11"/>
  <path d="m169.86,270.271c0.093,-5.032 -0.508,-10.1 0.757,-15.07c0.349,-1.374 0.783,-2.726 1.178,-4.089l1.776,-0.212c0.8,0.554 0.557,1.4 0.559,2.15c0.015,5.6 0.006,11.206 0,16.809c-1.365,0.719 -2.853,0.191 -4.27,0.412z" fill="#9cd9ef" id="svg_12"/>
  <path d="m60.541,164.509c0.723,2.544 1.39,5.107 2.192,7.627a2.951,2.951 0 0 1 -0.868,3.337a2.161,2.161 0 0 1 -2.554,0.188a2.6,2.6 0 0 1 -1.329,-3.151c0.617,-2.686 1.424,-5.329 2.153,-7.989l0.406,-0.012z" fill="#9cd9ef" id="svg_13"/>
  <path d="m117.369,182.658l0.438,-2.388a0.847,0.847 0 0 1 0.776,-0.405c-0.393,4.839 -0.447,9.686 -0.423,14.537a6.257,6.257 0 0 1 -0.36,1.487l-0.783,0.01l-0.017,-10.207q0.184,-1.516 0.369,-3.034z" fill="#030303" id="svg_14"/>
  <path d="m217.442,113.384a51.824,51.824 0 0 1 -1.883,19.139c-3.422,11.425 -11.5,17.9 -22.627,21.1a90.622,90.622 0 0 1 -21.214,3.091a304.554,304.554 0 0 1 -38.689,-0.357c-8.194,-0.688 -16.27,-2 -23.988,-5.036c-14.239,-5.591 -21.3,-16.245 -22.115,-31.291c-0.119,-2.2 0.054,-4.426 0.091,-6.639a0.767,0.767 0 0 0 0.634,-0.641a28.12,28.12 0 0 1 6.028,-11.682c3.45,-4.082 7.2,-7.767 12.657,-9.34c7.958,-2.3 15.989,-1.553 23.99,-0.92c6.331,0.5 12.664,0.984 19,1.349c6.3,0.362 12.6,-0.274 18.866,-0.822c7.316,-0.64 14.619,-1.357 21.962,-1.029c4.564,0.2 9.037,1.077 12.962,3.655a33.5,33.5 0 0 1 13.593,18.213c0.154,0.465 0.016,1.089 0.733,1.21zm-13.962,7.108c0.06,-6.756 -1.051,-11.379 -3.805,-15.509c-5.137,-7.707 -13.445,-8.027 -19.016,-0.7c-3.589,4.717 -4.562,10.155 -4.27,15.981a23.662,23.662 0 0 0 4.322,12.925c4.407,6.186 11.563,6.842 16.908,1.522a20.825,20.825 0 0 0 5.861,-14.219zm-73.1,-2.588a21.259,21.259 0 0 0 -4.87,-14.444c-2.707,-3.271 -6.136,-5.095 -10.624,-4.223c-3.479,0.676 -5.79,2.929 -7.667,5.618c-5.729,8.208 -5.239,20.8 0.986,28.9c4.236,5.516 11.438,6.091 16.305,1.187c4.441,-4.47 5.906,-10.091 5.868,-17.042l0.002,0.004zm22.08,32.441a8.56,8.56 0 0 0 7.54,-4.845c0.376,-0.721 0.706,-1.513 -0.208,-2.056c-1.009,-0.6 -1.344,0.247 -1.743,0.934c-2.908,5 -8.361,5 -11.274,-0.008c-0.362,-0.623 -0.665,-1.424 -1.581,-1.008c-1.075,0.487 -0.789,1.342 -0.366,2.15a8.463,8.463 0 0 0 7.63,4.833l0.002,0zm3.319,-14.236a3.354,3.354 0 1 0 -6.7,-0.048a3.354,3.354 0 1 0 6.7,0.048z" fill="#f3c9b0" id="svg_15"/>
  <path d="m217.442,113.384c-0.717,-0.121 -0.579,-0.745 -0.733,-1.214a33.5,33.5 0 0 0 -13.593,-18.213c-3.925,-2.578 -8.4,-3.45 -12.962,-3.655c-7.343,-0.328 -14.646,0.389 -21.962,1.029c-6.264,0.548 -12.567,1.184 -18.866,0.822c-6.336,-0.365 -12.669,-0.847 -19,-1.349c-8,-0.633 -16.032,-1.375 -23.99,0.92c-5.456,1.573 -9.207,5.258 -12.657,9.34a28.12,28.12 0 0 0 -6.028,11.682a0.767,0.767 0 0 1 -0.634,0.641c1.218,-12.57 12.811,-24.17 25.384,-25.488c7.807,-0.819 15.578,-0.258 23.366,0.3a207.051,207.051 0 0 0 27.894,0.251c8.822,-0.561 17.64,-1.388 26.5,-0.908c12.62,0.683 24.688,11.28 26.982,23.751c0.127,0.683 0.548,1.347 0.299,2.091z" fill="#c29a85" id="svg_16"/>
  <path d="m183.527,238.576c-0.623,1.42 -2.184,1.489 -3.275,2.229c-1.964,1.332 -3.344,3.228 -5.027,4.825c-4.1,-2.161 -5.22,-6.03 -5.327,-10.152c-0.187,-7.2 -0.025,-14.407 -0.01,-21.611a15.949,15.949 0 0 1 4.179,0.365c0.033,3.507 0.015,7.014 0.109,10.519c0.176,6.578 3.417,11.121 9.351,13.825z" fill="#9bd8ee" id="svg_17"/>
  <path d="m131.241,245.251c-0.3,-0.105 -0.734,-0.118 -0.876,-0.329c-1.971,-2.923 -4.921,-4.614 -7.858,-6.326c6.929,-3.175 9.7,-8.737 9.385,-16.15c-0.114,-2.716 0.02,-5.443 0.042,-8.165a17.2,17.2 0 0 0 4.2,-0.381c0.008,7.793 0.084,15.587 -0.007,23.379c-0.039,3.534 -1.434,6.433 -4.886,7.972z" fill="#9bd8ee" id="svg_18"/>
  <path d="m198.332,239.585c-0.058,0.392 -0.323,0.526 -0.68,0.542l0.68,-0.542z" fill="#7cb9e5" id="svg_19"/>
  <path d="m84.087,175.742a3.08,3.08 0 0 1 2.707,2.656c0,0.908 -0.439,1.546 -1.421,1.451a2.766,2.766 0 0 1 -2.571,-2.524a1.259,1.259 0 0 1 1.285,-1.583z" fill="#96d1e6" id="svg_20"/>
  <path d="m99.415,187.723c-1.079,-0.159 -2.329,-0.4 -2.356,-1.915c-0.02,-1.2 1.031,-1.376 1.976,-1.374c1.256,0 2.5,0.389 2.6,1.8c0.084,1.232 -1.047,1.466 -2.22,1.489z" fill="#96d1e6" id="svg_21"/>
  <path d="m90.655,181.714c1.318,0.01 2.862,1.226 2.785,2.27c-0.07,0.933 -0.7,1.329 -1.6,1.349c-1.382,0.03 -3.012,-1.289 -2.877,-2.4c0.115,-0.961 0.812,-1.244 1.692,-1.219z" fill="#96d1e6" id="svg_22"/>
  <path d="m108.073,184.52c1.312,0.1 2.557,0.357 2.548,1.736c-0.008,1.282 -1.226,1.559 -2.315,1.551c-1.071,-0.008 -2.243,-0.2 -2.289,-1.559c-0.046,-1.386 1.183,-1.492 2.056,-1.728z" fill="#96d1e6" id="svg_23"/>
  <path d="m79.02,169.251a2.8,2.8 0 0 1 2.3,2.687c-0.063,0.783 -0.418,1.337 -1.325,1.321a2.726,2.726 0 0 1 -2.278,-2.684c0.054,-0.793 0.389,-1.356 1.303,-1.324z" fill="#96d1e6" id="svg_24"/>
  <path d="m74.18,163.9a2.456,2.456 0 0 1 2.1,2.03c0.124,0.824 -0.434,1.234 -1.188,1.169a2.2,2.2 0 0 1 -2.107,-1.973c-0.116,-0.772 0.433,-1.169 1.195,-1.226z" fill="#96d1e6" id="svg_25"/>
  <path d="m117.369,182.658q-0.185,1.518 -0.37,3.034c-1.173,0.077 -2.46,-0.057 -2.366,-1.512c0.099,-1.533 1.356,-1.839 2.736,-1.522z" fill="#96d1e6" id="svg_26"/>
  <path d="m71.225,162.046a1.028,1.028 0 0 1 -1.25,0.933c-0.881,-0.109 -1.673,-0.52 -1.76,-1.488c-0.067,-0.742 0.592,-0.91 1.217,-0.876a1.775,1.775 0 0 1 1.793,1.431z" fill="#96d1e6" id="svg_27"/>
  <path d="m203.48,120.492a20.825,20.825 0 0 1 -5.861,14.216c-5.345,5.32 -12.5,4.664 -16.908,-1.522a23.662,23.662 0 0 1 -4.322,-12.925c-0.292,-5.826 0.681,-11.264 4.27,-15.981c5.571,-7.324 13.879,-7 19.016,0.7c2.754,4.133 3.865,8.756 3.805,15.512zm-5.869,-1.473a16.6,16.6 0 0 0 -2.743,-9.432c-3.462,-4.965 -9.075,-5.024 -12.644,-0.155c-3.775,5.152 -3.71,14 0.141,19.1c3.48,4.6 8.832,4.612 12.284,-0.013a16.21,16.21 0 0 0 2.962,-9.5z" fill="#fdfcfc" id="svg_28"/>
  <path d="m130.378,117.9c0.038,6.947 -1.427,12.568 -5.87,17.043c-4.867,4.9 -12.069,4.329 -16.305,-1.187c-6.225,-8.1 -6.715,-20.7 -0.986,-28.9c1.877,-2.689 4.188,-4.942 7.667,-5.618c4.488,-0.872 7.917,0.952 10.624,4.223a21.259,21.259 0 0 1 4.87,14.439zm-21.285,1.024a15.171,15.171 0 0 0 3.34,10.156c3.1,3.723 7.7,3.858 11.041,0.381c4.984,-5.189 4.969,-16.008 -0.029,-21.183c-3.133,-3.244 -7.381,-3.316 -10.512,-0.083c-2.883,2.982 -3.833,6.705 -3.84,10.733l0,-0.004z" fill="#fdfcfc" id="svg_29"/>
  <path d="m152.458,150.345a8.463,8.463 0 0 1 -7.635,-4.836c-0.423,-0.808 -0.709,-1.663 0.366,-2.15c0.916,-0.416 1.219,0.385 1.581,1.008c2.913,5.007 8.366,5.011 11.274,0.008c0.4,-0.687 0.734,-1.533 1.743,-0.934c0.914,0.543 0.584,1.335 0.208,2.056a8.56,8.56 0 0 1 -7.537,4.848z" fill="#ac5e53" id="svg_30"/>
  <path d="m155.777,136.109a3.354,3.354 0 1 1 -6.7,-0.048a3.354,3.354 0 1 1 6.7,0.048z" fill="#ac5e53" id="svg_31"/>
  <path d="m197.611,119.019a16.21,16.21 0 0 1 -2.962,9.5c-3.452,4.625 -8.8,4.617 -12.284,0.013c-3.851,-5.094 -3.916,-13.947 -0.141,-19.1c3.569,-4.869 9.182,-4.81 12.644,0.155a16.6,16.6 0 0 1 2.743,9.432zm-9.655,-5.922a2.162,2.162 0 0 0 -2.121,-2.383a2.29,2.29 0 1 0 -0.1,4.577a2.122,2.122 0 0 0 2.221,-2.191l0,-0.003z" fill="#ac5e53" id="svg_32"/>
  <path d="m109.093,118.928c0,-4.033 0.957,-7.751 3.84,-10.729c3.131,-3.233 7.379,-3.161 10.512,0.083c5,5.175 5.013,15.994 0.029,21.183c-3.339,3.477 -7.938,3.342 -11.041,-0.381a15.171,15.171 0 0 1 -3.34,-10.156zm5.283,-3.3a2.722,2.722 0 0 0 2.524,-2.711a2.619,2.619 0 0 0 -5.234,0.185a2.712,2.712 0 0 0 2.71,2.531l0,-0.005z" fill="#ac5e53" id="svg_33"/>
  <path d="m187.956,113.1a2.122,2.122 0 0 1 -2.222,2.194a2.29,2.29 0 1 1 0.1,-4.577a2.162,2.162 0 0 1 2.122,2.383z" fill="#fdfcfc" id="svg_34"/>
  <path d="m114.376,115.633a2.712,2.712 0 0 1 -2.71,-2.526a2.619,2.619 0 0 1 5.234,-0.185a2.722,2.722 0 0 1 -2.524,2.711z" fill="#fdfcfc" id="svg_35"/>
 </g>
</svg>