<?xml version="1.0" encoding="UTF-8" standalone="no"?>
<svg
   xmlns:dc="http://purl.org/dc/elements/1.1/"
   xmlns:cc="http://creativecommons.org/ns#"
   xmlns:rdf="http://www.w3.org/1999/02/22-rdf-syntax-ns#"
   xmlns:svg="http://www.w3.org/2000/svg"
   xmlns="http://www.w3.org/2000/svg"
   xmlns:sodipodi="http://sodipodi.sourceforge.net/DTD/sodipodi-0.dtd"
   xmlns:inkscape="http://www.inkscape.org/namespaces/inkscape"
   inkscape:version="1.0beta1 (32d4812, 2019-09-19)"
   sodipodi:docname="clojure.svg"
   id="svg2"
   height="512"
   width="512"
   version="1.1">
  <sodipodi:namedview
     inkscape:current-layer="svg2"
     inkscape:window-maximized="0"
     inkscape:window-y="81"
     inkscape:window-x="0"
     inkscape:cy="114.19027"
     inkscape:cx="-261.68735"
     inkscape:zoom="0.39932843"
     showgrid="false"
     id="namedview19"
     inkscape:window-height="739"
     inkscape:window-width="1301"
     inkscape:pageshadow="2"
     inkscape:pageopacity="0"
     guidetolerance="10"
     gridtolerance="10"
     objecttolerance="10"
     borderopacity="1"
     inkscape:document-rotation="0"
     bordercolor="#666666"
     pagecolor="#ffffff" />
  <metadata
     id="metadata4">
    <rdf:RDF>
      <cc:Work
         rdf:about="">
        <dc:format>image/svg+xml</dc:format>
        <dc:type
           rdf:resource="http://purl.org/dc/dcmitype/StillImage" />
        <dc:title></dc:title>
      </cc:Work>
    </rdf:RDF>
  </metadata>
  <defs
     id="defs6" />
  <path
     inkscape:connector-curvature="0"
     style="fill:#ffffff;stroke-width:1.78255"
     id="path8"
     d="m 240.68742,22.537843 c -125.80516,0 -228.164445,102.359287 -228.164445,228.167997 0,125.8194 102.359285,228.17334 228.164445,228.17334 125.80871,0 228.168,-102.35394 228.168,-228.17334 0,-125.80871 -102.35929,-228.167997 -228.168,-228.167997" />
  <path
     inkscape:connector-curvature="0"
     style="fill:#91dc47;stroke-width:1.78255"
     id="path10"
     d="m 232.34331,254.80926 c -2.04993,4.44211 -4.31199,9.43325 -6.65426,14.74524 -8.27993,18.75955 -17.44937,41.58686 -20.79878,56.21089 -1.20322,5.20861 -1.94832,11.66322 -1.93406,18.82015 0,2.83069 0.15151,5.80576 0.39216,8.83609 11.706,4.30129 24.34962,6.66673 37.55295,6.68991 12.01973,-0.0232 23.56708,-2.00893 34.37467,-5.60255 -2.54013,-2.32266 -4.9644,-4.79862 -7.17119,-7.58831 -14.65255,-18.68468 -22.82732,-46.06819 -35.76149,-92.11142" />
  <path
     inkscape:connector-curvature="0"
     style="fill:#91dc47;stroke-width:1.78255"
     id="path12"
     d="m 178.24652,161.9777 c -27.98423,19.72212 -46.29635,52.25006 -46.36587,89.11317 0.0695,36.31229 17.83083,68.41956 45.11095,88.22367 6.69169,-27.87371 23.46547,-53.39624 48.61902,-104.55538 -1.49377,-4.10343 -3.19611,-8.59545 -5.10165,-13.31386 -6.96798,-17.47967 -17.02513,-37.77933 -26.00026,-46.97193 -4.5758,-4.80219 -10.12844,-8.95196 -16.26219,-12.49567" />
  <path
     inkscape:connector-curvature="0"
     style="fill:#63b132;stroke-width:1.78255"
     id="path14"
     d="m 335.8666,376.13665 c -14.43864,-1.80929 -26.35498,-3.99291 -36.77933,-7.67031 -17.53314,8.70597 -37.27843,13.62402 -58.18595,13.62402 -72.34295,0 -130.98702,-58.63515 -130.99593,-130.99949 0,-39.2642 17.29785,-74.4624 44.66354,-98.46798 -7.31915,-1.76829 -14.95202,-2.80039 -22.74889,-2.78613 -38.435311,0.36186 -79.007899,21.63301 -95.89933,79.0792 -1.579338,8.36194 -1.20322,14.68464 -1.20322,22.17847 0,113.87812 92.31997,206.19809 206.18918,206.19809 69.73687,0 131.34174,-34.65096 168.6487,-87.64613 -20.17845,5.02857 -39.58327,7.43323 -56.20019,7.48492 -6.22822,0 -12.07498,-0.33334 -17.48858,-0.99466" />
  <path
     inkscape:connector-curvature="0"
     style="fill:#90b4fe;stroke-width:1.78255"
     id="path16"
     d="m 297.12112,336.18261 c 1.27274,0.63102 4.15869,1.66133 8.17477,2.80038 27.01809,-19.83442 44.57619,-51.78304 44.64571,-87.89212 h -0.0107 c -0.1016,-60.19845 -48.81687,-108.90659 -109.02958,-109.02602 -11.96803,0.0232 -23.46547,1.99824 -34.23028,5.56512 22.13747,25.23376 32.78285,61.29471 43.08064,100.74073 0.005,0.0178 0.0143,0.0321 0.0178,0.0463 0.0196,0.0321 3.29415,10.95376 8.91631,25.4441 5.58294,14.47073 13.53667,32.38534 22.21056,45.44073 5.69524,8.74875 11.95911,15.0358 16.22475,16.88074" />
  <path
     inkscape:connector-curvature="0"
     style="fill:#5881d8;stroke-width:1.78255"
     id="path18"
     d="m 240.90667,44.892781 c -69.06307,0 -130.15457,33.998549 -167.57383,86.129179 19.474343,-12.19619 39.35867,-16.59552 56.71178,-16.43866 23.96815,0.0695 42.81147,7.50096 51.85256,12.58479 2.18362,1.25848 4.25672,2.61322 6.28705,4.00539 16.13206,-7.10524 33.95755,-11.07854 52.71709,-11.07854 72.35187,0.009 131.00485,58.64407 131.01554,130.99593 h -0.0107 c 0,36.47807 -14.91994,69.46057 -38.97186,93.21124 5.9038,0.66133 12.19976,1.0731 18.62941,1.04101 22.83623,0.0107 47.51918,-5.02857 66.02382,-20.592 12.06607,-10.16409 22.1749,-25.04659 27.78102,-47.36053 1.09626,-8.61862 1.72729,-17.37985 1.72729,-26.29616 0,-113.87276 -92.31106,-206.201649 -206.18918,-206.201649" />
</svg>
