<?xml version="1.0" encoding="UTF-8"?>
<svg xmlns="http://www.w3.org/2000/svg" xmlns:xlink="http://www.w3.org/1999/xlink" width="1000px" height="1000px" viewBox="0 0 1000 1000" version="1.1">
<defs>
<linearGradient id="linear0" gradientUnits="userSpaceOnUse" x1="55.549179" y1="77.070274" x2="110.14919" y2="131.85291" gradientTransform="matrix(9.090909,0,0,9.090909,-408.522727,-613.352273)">
<stop offset="0" style="stop-color:rgb(21.960784%,49.411765%,72.156863%);stop-opacity:1;"/>
<stop offset="1" style="stop-color:rgb(21.176471%,41.176471%,58.039216%);stop-opacity:1;"/>
</linearGradient>
<linearGradient id="linear1" gradientUnits="userSpaceOnUse" x1="89.136749" y1="111.92053" x2="147.77737" y2="168.1012" gradientTransform="matrix(9.090909,0,0,9.090909,-408.522727,-613.352273)">
<stop offset="0" style="stop-color:rgb(100%,87.843137%,32.156863%);stop-opacity:1;"/>
<stop offset="1" style="stop-color:rgb(100%,76.470588%,19.215686%);stop-opacity:1;"/>
</linearGradient>
</defs>
<g id="surface1">
<path style=" stroke:none;fill-rule:nonzero;fill:url(#linear0);" d="M 498.296875 0 C 243.460938 0 259.375 110.511719 259.375 110.511719 L 259.660156 225 L 502.839844 225 L 502.839844 259.375 L 163.066406 259.375 C 163.066406 259.375 0 240.882812 0 498.011719 C 0 755.140625 142.328125 746.023438 142.328125 746.023438 L 227.273438 746.023438 L 227.273438 626.703125 C 227.273438 626.703125 222.695312 484.375 367.328125 484.375 C 511.964844 484.375 608.523438 484.375 608.523438 484.375 C 608.523438 484.375 744.035156 486.566406 744.035156 353.410156 C 744.035156 220.253906 744.035156 133.238281 744.035156 133.238281 C 744.035156 133.238281 764.609375 0 498.296875 0 Z M 364.203125 76.988281 C 388.398438 76.988281 407.953125 96.542969 407.953125 120.738281 C 407.953125 144.933594 388.398438 164.488281 364.203125 164.488281 C 340.007812 164.488281 320.453125 144.933594 320.453125 120.738281 C 320.453125 96.542969 340.007812 76.988281 364.203125 76.988281 Z M 364.203125 76.988281 "/>
<path style=" stroke:none;fill-rule:nonzero;fill:url(#linear1);" d="M 505.53125 998.601562 C 760.367188 998.601562 744.453125 888.089844 744.453125 888.089844 L 744.167969 773.601562 L 500.988281 773.601562 L 500.988281 739.226562 L 840.761719 739.226562 C 840.761719 739.226562 1003.828125 757.71875 1003.828125 500.589844 C 1003.828125 243.460938 861.5 252.578125 861.5 252.578125 L 776.554688 252.578125 L 776.554688 371.894531 C 776.554688 371.894531 781.132812 514.226562 636.5 514.226562 C 491.863281 514.226562 395.304688 514.226562 395.304688 514.226562 C 395.304688 514.226562 259.792969 512.035156 259.792969 645.191406 C 259.792969 778.347656 259.792969 865.363281 259.792969 865.363281 C 259.792969 865.363281 239.21875 998.601562 505.53125 998.601562 Z M 639.625 921.613281 C 615.429688 921.613281 595.875 902.058594 595.875 877.863281 C 595.875 853.667969 615.429688 834.113281 639.625 834.113281 C 663.820312 834.113281 683.375 853.667969 683.375 877.863281 C 683.375 902.058594 663.820312 921.613281 639.625 921.613281 Z M 639.625 921.613281 "/>
</g>
</svg>
